<?xml version="1.0" encoding="UTF-8"?><svg width="224.23mm" height="235.53mm" version="1.1" viewBox="0 0 224.23 235.53" xmlns="http://www.w3.org/2000/svg" xmlns:cc="http://creativecommons.org/ns#" xmlns:dc="http://purl.org/dc/elements/1.1/" xmlns:rdf="http://www.w3.org/1999/02/22-rdf-syntax-ns#" xmlns:xlink="http://www.w3.org/1999/xlink"><metadata><rdf:RDF><cc:Work rdf:about=""><dc:format>image/svg+xml</dc:format><dc:type rdf:resource="http://purl.org/dc/dcmitype/StillImage"/><dc:title/></cc:Work></rdf:RDF></metadata><g transform="translate(47.484 -60.137)"><path d="m89.89 148.92c1.181 9.0823 0.94624 19.52-1.8521 25.929-14.835 29.198 43.254 31.93 28.84 2.1167-1.8542-5.7415-4.4778-6.9283-1.5875-27.517-8.686 2.017-17.4 4.3122-25.4-0.52917z" fill="#f9d8c1" stroke-width="0"/></g><g transform="translate(47.484 -60.137)"><path d="m169.86 219.48c2.7169 41.209-1.0519 59.173-3.175 77.523l-13.607 4e-3 -2.2695-60.059z" fill="#ffe6d5"/></g><path class="rightarmtop" d="m90.635 151.01c5.5057-17.044 35.71-6.3844 28.047 10.972l-12.087 27.358c-5.5971 10.185-24.008 8.5913-22.121-6.1588z" fill="#ffe6d5" stroke-width="0"/><g class="shirt" transform="translate(47.484 -60.137)"><path d="m87.657 175.71c-12.46 27.59 39.965 28.096 29.32 1.3905 0 0 26.025 3.2115 36.391 10.049 11.558 7.6232 23.375 31.268 23.375 31.268l-25.931 18.526 2.2695 60.059-99.947-0.37806 6.05-61.115-29.529-15.323s12.578-27.341 24.33-35.63c9.4835-6.689 33.673-8.8464 33.673-8.8464z" fill="#ccc" stroke-width="0"/><path d="m59.183 235.51 2.4764-21.014-6.6146 18.587z" fill="#b3b3b3" stroke-width="0"/><path d="m150.81 236.95-1.7722-23.089 5.4256 19.831z" fill="#b3b3b3" stroke-width="0"/><flowRoot transform="matrix(.26458 0 0 .26458 -47.484 60.137)" fill="#000000" font-family="sans-serif" font-size="40px" letter-spacing="0px" word-spacing="0px" style="line-height:1.25" xml:space="preserve"><flowRegion><rect x="571.5" y="582.19" width="140" height="43"/></flowRegion><flowPara>Aadsf</flowPara></flowRoot><g transform="matrix(.5193 0 0 .5193 66.005 102.02)" fill="#666" stroke-width="5" aria-label="ARKA"><path d="m118.4 214.52h2.7911l-1.4002-3.3614zm2.958 0.41728h-3.1574l-0.88091 2.1466h-0.44509l2.9024-7.0055 2.9116 7.0055h-0.44509z"/><path d="m123.63 217.09v-6.9221h2.4573q0.74645 0 1.2657 0.54245 0.51927 0.53782 0.51927 1.3074 0 0.65373-0.408 1.1637-0.40336 0.50536-1.0107 0.63054l1.7943 3.2779h-0.46827l-1.7804-3.2501h-1.9519v3.2501zm0.41727-3.6627h2.0539q0.55172 0 0.94581-0.41264 0.39873-0.41263 0.39873-0.99682 0-0.59345-0.39873-1.0107-0.39872-0.42191-0.95972-0.42191h-2.04z"/><path d="m129.21 210.16h0.41727v2.9394l3.213-2.9394h0.62127l-2.8004 2.5546 3.0507 4.3674h-0.53781l-2.8004-4.0985-0.74646 0.68154v3.417h-0.41727z"/><path d="m135.44 214.52h2.7911l-1.4002-3.3614zm2.958 0.41728h-3.1574l-0.88091 2.1466h-0.44509l2.9024-7.0055 2.9116 7.0055h-0.44509z"/></g></g><g class="righthand" transform="translate(47.484 -60.137)"><g transform="rotate(24.735 42.486 244.35)"><g class="rightarm"><path d="m35.36 248.3c-3.6397-17.233 24.477-24.134 23.994 1.0985l-7.0184 53.738-16.8 0.56828z" fill="#ffe6d5" stroke-width="0"/><g transform="matrix(1.1198 -.2354 .2354 1.1198 -371.19 16.209)"><g class="right-hand"><g transform="rotate(190.17 267.97 233.13)"><path d="m210.38 153.67c0.31-1.385-0.841-3.248-1.047-4.681-0.336-2.343-0.663-8.37 1.325-12.285 0.542-4.203 0.251-7.603 0.214-11.854-0.025-2.814 3.206-5.2 3.421 0.753 0.115 3.166 0.392 1.322 0.132 8.738 0.444 1.82 1.654 0.822 1.95 0.644 0.628-2.08 0.99-7.756 2.23-14.472 0.754-4.075 4.043-3.877 3.714 0.543-0.272 3.65-1.014 5.066-2.34 14.286 0.223 1.63 1.815 0.943 2.095 0.573 1.439-3.33 2.025-7.727 4.237-13.86 2.61-7.23 5.355-2.838 3.465 1.568-1.652 3.851-1.603 4.987-4.458 12.805-0.167 1.663 1.57 1.505 1.726 0.914 1.186-2.072 3.144-6.976 5.588-12.812 1.194-2.85 5.296-3.222 3.846 1.085-1.054 3.133-3.204 7.928-6.411 15.04-0.23455 0.65661-0.41973 1.3298-0.554 2.014-0.928 5.054 3.082 2.387 5.943 1.211 7.338-4.12 8.247 0.73-8.242 8.143-2.3974 4.6586-10.963 6.4043-16.834 1.647z" fill="#ffe6d5"/><path d="m223.02 154.39-5.0115-0.75594c-0.88-0.028-1.711-2.086-1.296-3.186-0.149-0.205-0.897 1.653-0.124 3.004 0.26 0.453-2.345 0.041-3.8-0.358-1.227-0.337-4.571-4.977-1.491-15.621 0.614-2.122-1.199-14.956 1.174-15.52-2.4-0.216-1.478 9.053-1.81 14.746-2.914 8.062-0.572 16.45-0.277 16.966 1.5123 1.5219 11.608 2.8036 12.635 0.72494z" fill="#e9c6af"/><path d="m219.63 118.3c-1.49 3.42-1.402 8.783-2.782 16.53-0.094 0.496-0.857 0.517-1.233 0.562 0.27-0.107 0.325-0.131 0.763-0.408 0.6-0.794 1.362-15.59 3.252-16.684zm9.377-0.053c-1.69 0.218-4.812 11.552-6.667 17.639-0.175 0.552-1.078 0.627-1.58 0.478 0.65-0.012 1.111-0.148 1.317-0.45 1.173-4.102-0.234 0.94 3.402-11.417 0.281-0.957 0.696-2.018 1.166-3.177 0.621-1.636 1.282-2.892 2.362-3.073zm6.276 4.123c-2.804 1.853-4.07 7.732-8.025 15.045-0.363 0.589-1.382 0.566-1.555 0.166 0.112 0.05 0.588 0.493 1.344-0.24 2.162-3.91 2.604-6.997 6.033-13.543 0.605-0.596 1.084-1.308 2.203-1.428zm3.671 20.237c-2.723 1.143-5.863 2.566-8.245 4.215-2.236-2.351-6.467-2.927-11.166-2.429 3.227-0.442 6.13-1.501 10.582 1.248 1.53 0.424 5.373-2.415 8.829-3.034z" fill="#e9c6af"/></g></g></g></g></g></g><g class="head" transform="translate(50.407 -7.3613)"><g transform="translate(-2.9221 -52.776)"><path d="m99.283 77.993c-15.626-0.10586-30.657 10.733-31.347 34.975 0.31377 2.821 0.62756 5.6416 0.99994 8.4662-0.41717-0.15496-0.89794-0.23926-1.4547-0.23926-3.2494 0-5.4285 1.0931-5.4285 4.6799 0 3.5868 2.4995 7.6682 5.7489 7.6682 1.5382 0 2.4363-0.52949 2.9564-1.4671 1.5852 7.1086 4.0826 14.273 8.5369 21.559 2.6199 4.0314 5.0894 9.0028 14.566 13.732 8.8801 2.9709 12.748 2.319 18.308 0 5.6255-3.0306 10.646-10.576 12.695-14.392 3.5391-6.5922 6.0623-13.513 7.6548-20.719 0.92343 0.6991 2.0994 1.0821 3.4339 1.0821 3.2494-1e-5 5.1882-4.8298 5.1882-8.4165 0-3.5868-1.6184-3.9315-4.8678-3.9315-0.72888 0-1.426 0.14751-2.0702 0.41496 0.2707-2.9059 0.40934-5.8512 0.41651-8.8341-1.3959-21.951-18.703-34.466-35.337-34.578z" fill="#ffe6d5" stroke-width="0"/><path d="m110.34 112.74c1.1693-1.2056 3.3744-0.92268 3.9756-0.88867-2.0322 0.62357-3.1194 1.9513-3.7885 2.9466-0.66416-0.85505-0.37509-1.4423-0.18709-2.058z" fill="#eaccb8" stroke-width="0"/><path d="m86.163 111.61c1.2607 0.10641 2.0656-0.37325 4.116 0.74835 0.44896 0.81827 0.51734 1.4734 0.09354 1.9177-0.85208-0.68201-2.362-1.6107-4.2095-2.666z" fill="#eaccb8"/><path d="m139.48 124.48c-3.9993-2.8048-5.0992 2.2356-4.7708 4.303 0.60777-0.8062 1.6398-4.1461 4.7708-4.303z" fill="#eaccb8"/><path d="m63.919 124.8c3.9993-2.8048 5.0992 2.2356 4.7708 4.303-0.60777-0.8062-1.6398-4.1461-4.7708-4.303z" fill="#eaccb8"/></g><g transform="translate(-2.9221 -52.776)"><path d="m99.098 130.18c-0.28742 1.7154-0.98921 4.5391-0.36368 5.9361 0.65977 1.4736 1.6245 2.1644 4.6804 2.2029l-3.5938 0.6541s-2.6456-1.2421-2.5725-2.5257c0.13029-2.286 1.8496-6.2675 1.8496-6.2675z" fill="#eaccb8" stroke-width="0"/></g><g class="eyes" transform="translate(-2.9221 -52.776)"><path d="m110.44 119.42c-0.63429 2.9783 1.2532 5.6277 2.1497 5.9728 2.2606 0.52946 4.9893 0.75567 7.4838-0.26716 1.8263-1.2348 2.1762-3.265 2.2388-4.7723-0.13756-0.12733-0.31989-0.2722-0.50869-0.41598-0.69554-0.52966-1.3577-0.97861-1.9916-1.3513-0.63388-0.37273-1.2391-0.6689-1.8195-0.89297-0.58044-0.22406-1.1365-0.37574-1.6717-0.4594-0.53525-0.0837-1.0499-0.0996-1.5482-0.0512-0.49829 0.0485-0.97994 0.16097-1.4495 0.33331-0.46958 0.17235-0.92705 0.40451-1.3762 0.69247-0.44909 0.28795-0.8902 0.63203-1.327 1.0273-0.0603 0.0546-0.11967 0.12794-0.17984 0.18448z" fill="#fff"/><path d="m110.44 119.42c0.0602-0.0565 0.11952-0.12991 0.17984-0.18448 0.43684-0.3953 0.87795-0.73938 1.327-1.0273 0.4491-0.28796 0.90657-0.52012 1.3762-0.69247 0.46958-0.17234 0.95123-0.28483 1.4495-0.33331 0.4983-0.0485 1.013-0.0325 1.5482 0.0512s1.0913 0.23534 1.6717 0.4594c0.58045 0.22407 1.1856 0.52024 1.8195 0.89297 0.63387 0.37273 1.2961 0.82168 1.9916 1.3513 0.1888 0.14378 0.36528 0.27696 0.50869 0.41598 4e-3 -0.10431 0.0338-0.34072 0.0355-0.4382-0.9698-1.7489-7.9478-6.1714-11.795-1.0413-0.0589 0.18458-0.0738 0.36369-0.11266 0.54622z" fill="#999"/><g transform="matrix(1.0643 0 0 1.0643 -13.057 24.295)" stroke-width="0"><path transform="scale(.26458)" d="m456.53 330.56c-1.6418 0.13827-2.9976 0.49541-4.1211 1.0195-0.11076 0.0878-0.1977 0.2274-0.0675 0.24693-0.46669 1.1322 5.4632-1.2868 7.1554 3.5304 1.1787 3.3556-1.0202 7.4954-4.0391 7.8301-2.5106 2e-5 -4.1928-1.4381-5.1524-4.8628-0.53033-1.8927 0.24932-3.6088 0.65667-4.73 0.76738-0.89057 0.41398-1.5519-0.0281-1.1377-1.6661 1.2509-2.5944 2.9995-3.043 4.9531-0.93876 4.0881-0.28274 11.184 1.127 14.111 2.5895 5.3779 4.3317 8.207 10.922 8.207 3.4319-1e-5 6.6307-2.1709 8.5449-6.1094 1.7616-3.6243 1.885-9.5988 0.98828-13.336-1.894-7.8934-6.3533-9.7226-12.943-9.7226z"/><path d="m119.22 92.386c0.0168 1.0925 0.77716 1.6218 1.2206 1.9223 0.92401 0.62609 2.2338 0.42492 2.8668-0.64823 0.51595-0.87469 0.5943-2.3511-0.4502-4.2474 0.27112 1.1092 0.42059 2.0954 0.14341 2.9276-0.35272 1.0591-1.3352 1.74-2.1236 1.499-0.47723-0.14587-1.0801-0.73272-1.657-1.4533z" fill="#784421"/><path d="m119.85 93.388c0.47796 0.90607 1.2041 1.0643 1.6737 1.035 1.0086-0.06294 1.3599-0.59086 1.3599-0.59086 0.49805-0.60415 0.63588-1.7212 0.37949-2.7673 0.037 1.0207-0.18058 1.7891-0.46501 2.1669-0.49785 0.66128-0.7025 0.79475-1.5766 0.87148-0.42981 0.03773-0.87538-0.09558-1.3714-0.71521z" fill="#deaa87"/></g><path d="m92.329 119.14c0.63429 2.9783-1.2532 5.6277-2.1497 5.9728-2.2606 0.52946-4.9893 0.75567-7.4838-0.26716-1.8263-1.2348-2.1762-3.265-2.2388-4.7723 0.13756-0.12733 0.31989-0.2722 0.50869-0.41598 0.69554-0.52966 1.3577-0.97861 1.9916-1.3513 0.63388-0.37273 1.2391-0.6689 1.8195-0.89297 0.58044-0.22406 1.1365-0.37574 1.6717-0.4594 0.53525-0.0837 1.0499-0.0996 1.5482-0.0512 0.49829 0.0485 0.97994 0.16097 1.4495 0.33331 0.46958 0.17235 0.92705 0.40451 1.3762 0.69247 0.44909 0.28795 0.8902 0.63203 1.327 1.0273 0.0603 0.0546 0.11967 0.12794 0.17984 0.18448z" fill="#fff"/><path d="m92.329 119.14c-0.0602-0.0565-0.11952-0.12991-0.17984-0.18448-0.43684-0.3953-0.87795-0.73938-1.327-1.0273-0.4491-0.28796-0.90657-0.52012-1.3762-0.69247-0.46958-0.17234-0.95123-0.28483-1.4495-0.33331-0.4983-0.0485-1.013-0.0325-1.5482 0.0512s-1.0913 0.23534-1.6717 0.4594c-0.58045 0.22407-1.1856 0.52024-1.8195 0.89297-0.63387 0.37273-1.2961 0.82168-1.9916 1.3513-0.1888 0.14378-0.36528 0.27696-0.50869 0.41598-4e-3 -0.10431-0.0338-0.34072-0.0355-0.4382 0.9698-1.7489 7.9478-6.1714 11.795-1.0413 0.0589 0.18458 0.0738 0.36369 0.11266 0.54622z" fill="#999"/><g transform="matrix(1.0643 0 0 1.0643 -41.863 23.909)" stroke-width="0"><path d="m121.25 87.419c-0.43567-0.01492-0.80304 0.03659-1.1146 0.13923-0.0318 0.01961-0.059 0.05358-0.0254 0.06277-0.15796 0.2829 1.4756-0.16755 1.7698 1.1509 0.20495 0.91842-0.50203 1.9375-1.3056 1.9312-0.65961-0.07836-1.0567-0.50871-1.2019-1.4384-0.0803-0.51384 0.17816-0.94037 0.32018-1.2222 0.22942-0.21003 0.15721-0.39483 0.0281-0.2998-0.47679 0.27666-0.77526 0.7071-0.95411 1.2064-0.37425 1.0448-0.42338 2.9295-0.14439 3.7427 0.51248 1.4938 0.88192 2.2915 2.6134 2.4972 0.90169 0.10712 1.8099-0.36339 2.4358-1.3384 0.57596-0.89726 0.7949-2.4631 0.67594-3.473-0.25124-2.133-1.3657-2.7528-3.0972-2.9585z"/><path d="m119.09 92.474c0.0168 1.0925 0.77716 1.6218 1.2206 1.9223 0.92401 0.62609 2.2338 0.42492 2.8668-0.64823 0.51595-0.87469 1.2974-1.8677 0.25295-3.764 0.27112 1.1092-0.13495 1.9926-0.5442 2.7239-0.54517 0.97411-1.3507 1.4603-2.1392 1.2193-0.47723-0.14587-1.0801-0.73272-1.657-1.4533z" fill="#784421"/><path d="m119.71 93.476c0.47796 0.90607 1.2041 1.0643 1.6737 1.035 1.0086-0.06294 1.3599-0.59086 1.3599-0.59086 0.3349-0.24679 1.161-1.6544 0.90465-2.7005 0.037 1.0207-0.53252 1.7364-0.83479 2.1001-0.5367 0.64574-0.85788 0.79475-1.732 0.87148-0.42981 0.03773-0.87538-0.09558-1.3714-0.71521z" fill="#deaa87"/></g><path d="m109.75 110.9c1.2002-4.52 11.068-2.9328 12.254 1.8709-5.302-5.3962-12.367 0.69664-12.254-1.8709z" stroke-width="0"/><path d="m91.632 111.06c-1.2002-4.52-11.068-2.9328-12.254 1.8709 5.302-5.3962 12.367 0.69664 12.254-1.8709z" stroke-width="0"/><g class="eyes-first" stroke-width="0"><path d="m112.59 125.4c0.7948 0.66244 4.9968 1.7101 7.4838-0.26716-2.1631 0.93155-4.6665 0.969-7.4838 0.26716z"/><path d="m111.16 117.71c-3.0149 1.0244 4.588-6.5554 11.74 2.7829-0.21378-0.32004-5.2334-6.3734-11.74-2.7829z"/><path d="m90.18 125.11c-0.7948 0.66244-4.9968 1.7101-7.4838-0.26716 2.1631 0.93155 4.6665 0.969 7.4838 0.26716z"/><path d="m91.609 117.42c3.0149 1.0244-4.588-6.5554-11.74 2.7829 0.21378-0.32004 5.2334-6.3734 11.74-2.7829z"/></g><g class="eyes-middle-first" stroke-width="0" style=""><path d="m110.81 118.48c2.6541-0.78369 7.129-1.5039 11.538 1.4388-0.99144-1.7465-7.5476-5.9518-11.538-1.4388z" fill="#eaccb8"/><path d="m112.59 125.4c-0.54271-0.28553-0.84134-0.60173-1.1061-1.029l9.0308 0.58554c-0.20572 0.18719-0.45514 0.30404-0.76196 0.47555-1.6334 0.91295-5.3218 0.94809-7.1628-0.032z" fill="#eaccb8"/><path d="m111.48 124.37c1.6964 0.35002 4.694 0.66319 9.0308 0.58554-2.5957-0.30791-6.0732-0.53851-9.0308-0.58554z"/><path d="m111.22 118.46c-3.0149 1.0244 4.4025-3.6483 11.124 1.4566-0.29563-0.0979-4.7833-3.443-11.124-1.4566z"/><path d="m91.959 118.19c-2.6541-0.78369-7.129-1.5039-11.538 1.4388 0.99144-1.7465 7.5476-5.9518 11.538-1.4388z" fill="#eaccb8"/><path d="m90.18 125.11c0.54271-0.28553 0.84134-0.60173 1.1061-1.029l-9.0308 0.58554c0.20572 0.18719 0.45514 0.30404 0.76196 0.47555 1.6334 0.91295 5.3218 0.94809 7.1628-0.032z" fill="#eaccb8"/><path d="m91.286 124.08c-1.6964 0.35002-4.694 0.66319-9.0308 0.58554 2.5957-0.30791 6.0732-0.53851 9.0308-0.58554z"/><path d="m91.546 118.18c3.0149 1.0244-4.4025-3.6483-11.124 1.4566 0.29563-0.0979 4.7833-3.443 11.124-1.4566z"/></g><g class="eyes-middle" stroke-width="0" style=""><path d="m110.55 118.88c-0.0754 0.25005-0.0774 0.32787-0.1127 0.54614l11.872 0.9333c0.0286-0.2255 0.022-0.27702 0.0355-0.43816-0.87451-2.0739-8.4363-6.1155-11.795-1.0413z" fill="#eaccb8"/><path d="m112.59 125.4c-0.65964-0.32061-1.1687-0.95251-1.5855-1.8241l9.9896 0.73755c-0.0771 0.1755-0.50188 0.83022-0.80874 1.0017-1.6334 0.91295-5.7544 1.065-7.5954 0.0849z" fill="#eaccb8"/><path d="m111 123.57c1.6964 0.35002 5.6529 0.8152 9.9896 0.73755-2.5957-0.30791-7.0321-0.69052-9.9896-0.73755z"/><path d="m110.44 119.42c3.5086-0.0977 5.4818-0.17006 11.872 0.93326-3.5743-0.314-8.5456-0.59127-11.872-0.93326z"/><path d="m92.217 118.59c0.0754 0.25005 0.0774 0.32787 0.1127 0.54614l-11.872 0.9333c-0.0286-0.2255-0.022-0.27702-0.0355-0.43816 0.87451-2.0739 8.4363-6.1155 11.795-1.0413z" fill="#eaccb8"/><path d="m90.18 125.11c0.65964-0.32061 1.1687-0.95251 1.5855-1.8241l-9.9896 0.73755c0.0771 0.1755 0.50188 0.83022 0.80874 1.0017 1.6334 0.91295 5.7544 1.065 7.5954 0.0849z" fill="#eaccb8"/><path d="m91.765 123.29c-1.6964 0.35002-5.6529 0.8152-9.9896 0.73755 2.5957-0.30791 7.0321-0.69052 9.9896-0.73755z"/><path d="m92.329 119.14c-3.5086-0.0977-5.4818-0.17006-11.872 0.93326 3.5743-0.314 8.5456-0.59127 11.872-0.93326z"/></g><g class="eyes-middle-last" stroke-width="0" style=""><path d="m110.55 118.88c-0.14263 0.4196-0.26507 1.3505-0.2419 1.712l11.896 0.91983c0.0865-0.39913 0.18112-1.0201 0.14093-1.5906-0.87451-2.0739-8.4363-6.1155-11.795-1.0413z" fill="#eaccb8"/><path d="m112.59 125.4c-0.82334-0.3323-1.6102-1.6482-1.9041-2.6134l10.797 0.84656c-0.26727 0.78735-0.99059 1.5105-1.2974 1.682-1.6334 0.91295-5.7544 1.065-7.5954 0.0849z" fill="#eaccb8"/><path d="m110.68 122.78c1.6964 0.35002 6.4602 0.92421 10.797 0.84656-2.5957-0.30791-7.8394-0.79953-10.797-0.84656z"/><path d="m110.31 120.59c3.5086-0.0977 5.5056-0.18349 11.896 0.91983-3.5743-0.314-8.5693-0.57784-11.896-0.91983z"/><path d="m92.217 118.59c0.14263 0.4196 0.26507 1.3505 0.2419 1.712l-11.896 0.91983c-0.0865-0.39913-0.18112-1.0201-0.14093-1.5906 0.87451-2.0739 8.4363-6.1155 11.795-1.0413z" fill="#eaccb8"/><path d="m90.18 125.11c0.82334-0.3323 1.6102-1.6482 1.9041-2.6134l-10.797 0.84656c0.26727 0.78735 0.99059 1.5105 1.2974 1.682 1.6334 0.91295 5.7544 1.065 7.5954 0.0849z" fill="#eaccb8"/><path d="m92.084 122.5c-1.6964 0.35002-6.4602 0.92421-10.797 0.84656 2.5957-0.30791 7.8394-0.79953 10.797-0.84656z"/><path d="m92.459 120.3c-3.5086-0.0977-5.5056-0.18349-11.896 0.91983 3.5743-0.314 8.5693-0.57784 11.896-0.91983z"/></g><g class="eyes-last" stroke-width="0" style=""><path d="m110.55 118.88c-0.24491 0.99694-0.25888 1.9554-0.24297 2.9089l11.763 0.82436c0.25656-0.70491 0.27892-1.6831 0.27493-2.692-0.87451-2.0739-8.4363-6.1155-11.795-1.0413z" fill="#eaccb8"/><path d="m112.59 125.4c-1.0221-0.48431-2.2959-2.6566-2.28-3.6101l11.763 0.82436c-0.43757 1.1662-0.95665 2.2854-1.8877 2.7009-1.7089 0.76245-5.7544 1.065-7.5954 0.0849z" fill="#eaccb8"/><path d="m110.31 121.79c1.6964 0.35002 7.4264 0.90201 11.763 0.82436-2.5957-0.30791-8.8056-0.77733-11.763-0.82436z"/><path d="m110.31 121.79c3.4799-0.0547 5.2834-0.14516 11.763 0.82436-3.5743-0.44367-8.4364-0.63301-11.763-0.82436z"/><path d="m92.217 118.59c0.24491 0.99694 0.25888 1.9554 0.24297 2.9089l-11.763 0.82436c-0.25656-0.70491-0.27892-1.6831-0.27493-2.692 0.87451-2.0739 8.4363-6.1155 11.795-1.0413z" fill="#eaccb8"/><path d="m90.18 125.11c1.0221-0.48431 2.2959-2.6566 2.28-3.6101l-11.763 0.82436c0.43757 1.1662 0.95665 2.2854 1.8877 2.7009 1.7089 0.76245 5.7544 1.065 7.5954 0.0849z" fill="#eaccb8"/><path d="m92.46 121.5c-1.6964 0.35002-7.4264 0.90201-11.763 0.82436 2.5957-0.30791 8.8056-0.77733 11.763-0.82436z"/><path d="m92.46 121.5c-3.4799-0.0547-5.2834-0.14516-11.763 0.82436 3.5743-0.44367 8.4364-0.63301 11.763-0.82436z"/></g></g><g transform="translate(-2.9221 -52.776)"><g transform="matrix(-1 0 0 1 343.54 8.155)"><path transform="matrix(-.26458 0 0 .26458 391.02 51.982)" d="m502.46 206.13c-14.306-0.04878-28.456 1.6527-42.701 4.3008-2.0217 7.9187-3.1096 17.88-1.3418 27.783 0.30075 0.49748 0.66335 0.75763 1.0137 0.85938 0.99694 8.0702 4.5644 15.689 4.5644 15.689l0.00782 0.01172 0.00781 0.00781c2.3321 2.8553 7.7687 5.0713 14.764 6.7031 6.995 1.6318 15.554 2.672 24.121 3.127 8.5668 0.45498 17.141 0.32396 24.174-0.38867 7.0325-0.71263 12.516-1.996 14.936-3.9004l0.00781-0.00782 0.00781-0.00781s2.3602-2.8678 4.9473-6.9316c2.0336-3.1944 4.1944-7.1296 5.4766-10.998 0.562-0.03096 1.2585-0.63641 2.0898-2.334 2.1648-9.5574 5.3974-10.944 9.1602-11.312 3.7628 0.36888 6.9974 1.7551 9.1621 11.312 0.83135 1.6976 1.5259 2.303 2.0879 2.334 1.2822 3.8685 3.443 7.8037 5.4766 10.998 2.587 4.0638 4.9473 6.9316 4.9473 6.9316l0.01563 0.01563c2.4194 1.9044 7.903 3.1878 14.936 3.9004 7.0325 0.71263 15.607 0.84365 24.174 0.38867 8.5668-0.45498 17.126-1.4951 24.121-3.127 6.995-1.6318 12.432-3.8478 14.764-6.7031l0.00781-0.00781 0.00781-0.01172s3.5675-7.6192 4.5644-15.689c0.35033-0.10175 0.71293-0.3619 1.0137-0.85938 1.7678-9.9034 0.67991-19.865-1.3418-27.783-32.561-6.0527-64.616-7.1564-99.205 6.2656l-4.7305 0.11914-4.7305-0.11914c-19.457-7.5499-38.11-10.504-56.504-10.566zm-0.6543 2.1641c20.654 0.11939 42.796 3.688 48.959 11.387 3.5813 4.4735 2.4085 12.333-0.01954 20.133 0.12023 0.78088 0.62106 2.3577 1.4863 2.5449-1.2768 3.8251-3.4233 7.7292-5.4434 10.902-2.573 4.0417-4.9027 6.8794-4.9141 6.8945-2.332 1.8357-7.8044 3.1444-14.822 3.8555-7.0178 0.71104-15.589 0.8373-24.146 0.38281-8.5571-0.45445-17.101-1.4934-24.078-3.1211-6.9744-1.627-12.378-3.8576-14.643-6.627 0-0.00113-0.00687 0.00106-0.00781 0-0.01842-0.03947-3.5217-7.555-4.5215-15.527 0.60445 0.05038 1.1213-0.39587 1.1348-1.0957-0.78558-7.4611-1.6291-20.731 3.7402-24.068 6.0469-3.7582 21.211-5.753 37.275-5.6602zm123.78 0c16.064-0.09286 31.229 1.902 37.275 5.6602 5.3693 3.3371 4.5258 16.607 3.7402 24.068 0.01344 0.69984 0.53031 1.1461 1.1348 1.0957-0.9998 7.9723-4.5031 15.488-4.5215 15.527-9.4e-4 0.00106-0.00781-0.00113-0.00781 0-2.2648 2.7694-7.6681 5-14.643 6.627-6.9772 1.6277-15.521 2.6666-24.078 3.1211-8.5571 0.45449-17.129 0.32823-24.146-0.38281-7.0178-0.71112-12.49-2.0198-14.822-3.8555-0.01134-0.01512-2.3411-2.8529-4.9141-6.8945-2.02-3.1731-4.1665-7.0772-5.4434-10.902 0.86588-0.18628 1.3661-1.7637 1.4863-2.5449-2.428-7.7999-3.5989-15.659-0.01758-20.133 6.1634-7.6987 28.303-11.267 48.957-11.387z" color="#000000" color-rendering="auto" dominant-baseline="auto" image-rendering="auto" shape-rendering="auto" solid-color="#000000" style="font-feature-settings:normal;font-variant-alternates:normal;font-variant-caps:normal;font-variant-ligatures:normal;font-variant-numeric:normal;font-variant-position:normal;isolation:auto;mix-blend-mode:normal;shape-padding:0;text-decoration-color:#000000;text-decoration-line:none;text-decoration-style:solid;text-indent:0;text-orientation:mixed;text-transform:none;white-space:normal"/></g><path d="m74.38 117.11-6.0496 1.8338-0.16317 1.1356 6.055-1.9484z"/><path d="m135.03 119.47-5.708-1.3759 0.0376-0.88752 5.634 1.4339z"/></g><g class="mouth" transform="translate(-2.9221 -52.776)"><g class="mouth-closed"><path d="m95.053 153.06c3.4778 3.0827 7.6488 3.841 12.141 0.50646-3.9271 1.5117-7.965 1.4731-12.141-0.50646z" fill="#eaccb8"/><path d="m87.95 148.35c10.488 5.1971 21.266 3.4078 26.282 1.1007-9.5006 4.1425-21.211 1.5642-26.282-1.1007z" fill="#483737" stroke="#483737" stroke-width=".1"/></g><g class="mouth-semi-closed"><path d="m95.311 155.17c3.4778 3.0827 7.6488 3.841 12.141 0.50646-3.9271 1.5117-7.965 1.4731-12.141-0.50646z" fill="#eaccb8"/><path d="m89.9 148.79c-0.57014-0.0975-1.5115-0.35412-1.9507-0.43534 1.1066 2.6309 4.7397 4.0724 6.7301 4.599 4.5532 1.2047 6.5662 1.7489 12.514 0.6168 2.5224-0.4801 4.9173-1.6147 7.0375-4.1151-0.28802 0.0296-0.91136 0.13455-1.651 0.26544l-0.77671 1.2636-21.328-0.79839z" fill="#483737" stroke="#483737" stroke-width=".1"/><path d="m89.9 148.79c0.0018 0.45521-0.01296 0.87159 0.57526 1.3959 7.705 1.2589 14.677 1.2971 21.328 0.79839 0.30633-0.019 0.68387-0.33038 0.77671-1.2634-1.7363 0.42355-14.996 0.85277-22.68-0.93081z" fill="#fff" stroke="#483737" stroke-width=".1"/></g><g class="mouth-open"><path d="m95.708 157.09c3.4778 3.0827 7.6488 3.841 12.141 0.50646-3.9271 1.5117-7.965 1.4731-12.141-0.50646z" fill="#eaccb8"/><path d="m89.643 148.34c-0.51226 0.01-1.2543-9e-3 -1.6934 9e-3 1.1066 2.6309 3.5742 4.857 5.4205 5.7683 5.4031 2.6667 10.315 3.5742 16.022 0.57003 1.9245-1.0132 3.327-2.6437 4.8392-5.2376-0.27975-0.0779-0.79147-0.1578-1.4857-0.23772l-0.94207 1.7668-21.328-0.79839z" fill="#483737" stroke="#483737" stroke-width=".1"/><path d="m89.643 148.34c0.0018 0.45521-0.05973 1.4621 0.83251 1.8402 7.705 1.2589 14.677 1.2971 21.328 0.79839 0.30633-0.019 1.1065-0.77528 0.94207-1.7668-2.3282-0.26802-6.6436-0.52557-11.186-0.69452-4.2561-0.15831-8.7113-0.23883-11.917-0.17726z" fill="#fff" stroke="#483737" stroke-width=".1"/></g></g><g transform="translate(-2.9221 -52.776)"><path d="m131.16 103.24c2.6385 4.8493 4.081 12.025 2.555 21.884 4.5405-6.9655 20.191-19.325 5.7738-49.822l2.2065-3.294c-3.0554 0.31464-56.856-30.097-69.655 5.2271-21.285 11.393-7.3675 42.945-2.5257 48.643-3.8229-55.992 37.711-27.119 61.646-22.638z" stroke-width="0"/><path d="m72.771 77.779 10.212-10.085z" fill="#808080" stroke="#000" stroke-width=".26458px"/><path d="m72.038 77.236c9.8302-25.398 40.372-11.163 67.449-1.9332l2.2065-3.294c-45.14-19.455-63.519-12.914-69.655 5.2271z" fill="#4d4d4d" stroke-width="0"/><path d="m72.038 77.236c0.57225 4.3011 1.1844 8.6536 5.376 17.608-1.6202 1.2483-1.6498 0.97663-2.6059 2.3631l-5.0649-18.405c0.88736-0.66106 1.2675-0.99885 2.2949-1.5665z" fill="#333" stroke-width="0"/><path d="m145 94.635c-1.3582 8.7795-4.6632 17.753-10.717 24.849l-0.57282 5.6408c14.07-15.953 11.438-28.596 11.29-30.49z" fill="#333" stroke-width="0"/></g></g><style>.eyes-first{-webkit-animation-timing-function: linear; animation-timing-function: linear; -webkit-animation : eye-first 3s infinite; animation : eye-first 3s infinite;}.eyes-last{-webkit-animation-timing-function: linear; animation-timing-function: linear; -webkit-animation : eye-last 3s infinite; animation : eye-last 3s infinite;}.eyes-middle{-webkit-animation-timing-function: linear; animation-timing-function: linear; -webkit-animation : eye-middle 3s infinite; animation : eye-middle 3s infinite;}.eyes-middle-first{-webkit-animation-timing-function: linear; animation-timing-function: linear; -webkit-animation : eye-middle-first 3s infinite; animation : eye-middle-first 3s infinite;}.eyes-middle-last{-webkit-animation-timing-function: linear; animation-timing-function: linear; -webkit-animation : eye-middle-last 3s infinite; animation : eye-middle-last 3s infinite;}@-webkit-keyframes eye-first{0%{opacity : 1}43%{opacity : 1}44%{opacity : 0}57%{opacity : 0}58%{opacity : 1}100%{opacity : 1}}@keyframes eye-first{0%{opacity : 1}43%{opacity : 1}44%{opacity : 0}57%{opacity : 0}58%{opacity : 1}100%{opacity : 1}}@-webkit-keyframes eye-last{0%{opacity : 0}49%{opacity : 0}50%{opacity : 1}51%{opacity : 1}52%{opacity : 0}100%{opacity : 0}}@keyframes eye-last{0%{opacity : 0}49%{opacity : 0}50%{opacity : 1}51%{opacity : 1}52%{opacity : 0}100%{opacity : 0}}@-webkit-keyframes eye-middle{0%{opacity : 0}45%{opacity : 0}46%{opacity : 1}47%{opacity : 1}48%{opacity : 0}53%{opacity : 0}54%{opacity : 1}55%{opacity : 1}56%{opacity : 0}100%{opacity : 0}}@keyframes eye-middle{0%{opacity : 0}45%{opacity : 0}46%{opacity : 1}47%{opacity : 1}48%{opacity : 0}53%{opacity : 0}54%{opacity : 1}55%{opacity : 1}56%{opacity : 0}100%{opacity : 0}}@-webkit-keyframes eye-middle-first{0%{opacity : 0}43%{opacity : 0}44%{opacity : 1}45%{opacity : 1}46%{opacity : 0}55%{opacity : 0}56%{opacity : 1}57%{opacity : 1}58%{opacity : 0}100%{opacity : 0}}@keyframes eye-middle-first{0%{opacity : 0}43%{opacity : 0}44%{opacity : 1}45%{opacity : 1}46%{opacity : 0}55%{opacity : 0}56%{opacity : 1}57%{opacity : 1}58%{opacity : 0}100%{opacity : 0}}@-webkit-keyframes eye-middle-last{0%{opacity : 0}47%{opacity : 0}48%{opacity : 1}49%{opacity : 1}50%{opacity : 0}51%{opacity : 0}52%{opacity : 1}53%{opacity : 1}54%{opacity : 0}100%{opacity : 0}}@keyframes eye-middle-last{0%{opacity : 0}47%{opacity : 0}48%{opacity : 1}49%{opacity : 1}50%{opacity : 0}51%{opacity : 0}52%{opacity : 1}53%{opacity : 1}54%{opacity : 0}100%{opacity : 0}}.mouth-open{-webkit-animation-timing-function: linear; animation-timing-function: linear; -webkit-animation : mouth-open 7s infinite; animation : mouth-open 7s infinite;}.mouth-semi-closed{-webkit-animation-timing-function: linear; animation-timing-function: linear; -webkit-animation : mouth-semi-closed 7s infinite; animation : mouth-semi-closed 7s infinite;}.mouth-closed{-webkit-animation-timing-function: linear; animation-timing-function: linear; -webkit-animation : mouth-closed 7s infinite; animation : mouth-closed 7s infinite;}@-webkit-keyframes mouth-open{0%{opacity : 0}30%{opacity : 0}31%{opacity : 1}75%{opacity : 1}76%{opacity : 0}100%{opacity : 0}}@keyframes mouth-open{0%{opacity : 0}30%{opacity : 0}31%{opacity : 1}75%{opacity : 1}76%{opacity : 0}100%{opacity : 0}}@-webkit-keyframes mouth-semi-closed{0%{opacity : 0}25%{opacity : 0}26%{opacity : 1}30%{opacity : 1}31%{opacity : 0}75%{opacity : 0}76%{opacity : 1}80%{opacity : 1}81%{opacity : 0}100%{opacity : 0}}@keyframes mouth-semi-closed{0%{opacity : 0}25%{opacity : 0}26%{opacity : 1}30%{opacity : 1}31%{opacity : 0}75%{opacity : 0}76%{opacity : 1}80%{opacity : 1}81%{opacity : 0}100%{opacity : 0}}@-webkit-keyframes mouth-closed{0%{opacity : 1}25%{opacity : 1}26%{opacity : 0}80%{opacity : 0}81%{opacity : 1}100%{opacity : 1}}@keyframes mouth-closed{0%{opacity : 1}25%{opacity : 1}26%{opacity : 0}80%{opacity : 0}81%{opacity : 1}100%{opacity : 1}}.head{-webkit-transform-origin: 101px 125px; -ms-transform-origin: 101px 125px; transform-origin: 101px 125px; -webkit-transform: translate(50px,-5px); -ms-transform: translate(50px,-5px); transform: translate(50px,-5px);}.head-animation{-webkit-animation-timing-function: linear; animation-timing-function: linear; -webkit-animation : head 7s; animation : head 7s;}@-webkit-keyframes head{0%{-webkit-transform: translate(50px,-5px) rotate(0deg); transform: translate(50px,-5px) rotate(0deg);}25%{-webkit-transform: translate(50px,-5px) rotate(5deg); transform: translate(50px,-5px) rotate(5deg);}75%{-webkit-transform: translate(50px,-5px) rotate(-5deg); transform: translate(50px,-5px) rotate(-5deg);}100%{-webkit-transform: translate(50px,-5px) rotate(0deg); transform: translate(50px,-5px) rotate(0deg);}}@keyframes head{0%{-webkit-transform: translate(50px,-5px) rotate(0deg); transform: translate(50px,-5px) rotate(0deg);}25%{-webkit-transform: translate(50px,-5px) rotate(5deg); transform: translate(50px,-5px) rotate(5deg);}75%{-webkit-transform: translate(50px,-5px) rotate(-5deg); transform: translate(50px,-5px) rotate(-5deg);}100%{-webkit-transform: translate(50px,-5px) rotate(0deg); transform: translate(50px,-5px) rotate(0deg);}}.rightarm-animation{-webkit-transform-origin: 40px 246px; -ms-transform-origin: 40px 246px; transform-origin: 40px 246px; -webkit-animation-timing-function: linear; animation-timing-function: linear; -webkit-animation : rightarm-move 7s; animation : rightarm-move 7s;}@-webkit-keyframes rightarm-move{0%{-webkit-transform: rotate(0deg); transform: rotate(0deg);}25%{-webkit-transform: rotate(145deg); transform: rotate(145deg);}37%{-webkit-transform: rotate(135deg); transform: rotate(135deg);}50%{-webkit-transform: rotate(145deg); transform: rotate(145deg);}62%{-webkit-transform: rotate(135deg); transform: rotate(135deg);}75%{-webkit-transform: rotate(145deg); transform: rotate(145deg);}100%{-webkit-transform: rotate(0deg); transform: rotate(0deg);}}@keyframes rightarm-move{0%{-webkit-transform: rotate(0deg); transform: rotate(0deg);}25%{-webkit-transform: rotate(145deg); transform: rotate(145deg);}37%{-webkit-transform: rotate(135deg); transform: rotate(135deg);}50%{-webkit-transform: rotate(145deg); transform: rotate(145deg);}62%{-webkit-transform: rotate(135deg); transform: rotate(135deg);}75%{-webkit-transform: rotate(145deg); transform: rotate(145deg);}100%{-webkit-transform: rotate(0deg); transform: rotate(0deg);}}.rightarmtop-animation{-webkit-transform-origin: 73px 152px; -ms-transform-origin: 73px 152px; transform-origin: 73px 152px; -webkit-animation-timing-function: linear; animation-timing-function: linear; -webkit-animation : rightarmtop-move 7s; animation : rightarmtop-move 7s;}@-webkit-keyframes rightarmtop-move{0%{-webkit-transform: rotate(0deg); transform: rotate(0deg);}25%{-webkit-transform: rotate(20deg); transform: rotate(20deg);}75%{-webkit-transform: rotate(20deg); transform: rotate(20deg);}100%{-webkit-transform: rotate(0deg); transform: rotate(0deg);}}@keyframes rightarmtop-move{0%{-webkit-transform: rotate(0deg); transform: rotate(0deg);}25%{-webkit-transform: rotate(20deg); transform: rotate(20deg);}75%{-webkit-transform: rotate(20deg); transform: rotate(20deg);}100%{-webkit-transform: rotate(0deg); transform: rotate(0deg);}}.shirt:hover{cursor:pointer;}</style><script type="text/javascript">var shirt=document.getElementsByClassName('shirt'); shirt[0].onclick=function(){var oldone=document.getElementsByClassName('head')[0]; var newone=oldone.cloneNode(true); oldone.parentNode.replaceChild(newone, oldone); newone.classList.add('head-animation'); oldone=document.getElementsByClassName('rightarm')[0]; var newone=oldone.cloneNode(true); oldone.parentNode.replaceChild(newone, oldone); newone.classList.add('rightarm-animation'); oldone=document.getElementsByClassName('rightarmtop')[0]; var newone=oldone.cloneNode(true); oldone.parentNode.replaceChild(newone, oldone); newone.classList.add('rightarmtop-animation');};</script></svg>